<svg width="606" height="380" viewBox="0 0 606 380" fill="none" xmlns="http://www.w3.org/2000/svg">
<g clip-path="url(#clip0_172_395)">
<path opacity="0.18" d="M605.867 269.114C605.268 280.856 602.264 292.351 597.04 302.886C588.522 319.794 575.267 333.606 559.577 344.288C550.824 350.204 541.475 355.189 531.683 359.159C526.294 361.363 520.794 363.287 515.206 364.923C481.369 374.818 445.664 375.303 410.444 375.714L162.55 378.611L129.949 378.986C119.577 379.111 109.007 379.184 98.5469 378.611C78.5904 377.538 59.0016 374.134 41.8257 364.335C32.9809 359.254 25.2586 352.435 19.1254 344.288C7.48104 328.931 1.1844 309.347 0.882812 289.83V287.779C1.00786 268.732 6.89257 249.905 19.1328 235.284C19.9125 234.357 20.7069 233.439 21.5381 232.549C23.2668 230.682 25.1572 228.873 27.1433 227.065C39.7881 215.663 56.4859 205.445 64.0551 190.757C77.3693 164.91 60.7671 154.361 58.5824 129.007C54.9044 86.3697 98.0982 37.3737 133.186 17.812C170.907 -3.27131 218.426 -5.80013 258.192 11.1151C300.267 29.0227 339.533 68.021 383.918 57.0235C398.189 53.4876 411.297 44.7837 426.001 44.5264C453.174 44.0045 472.034 71.6231 480.494 97.4554C488.953 123.288 493.543 152.443 513.654 170.725C528.086 183.84 547.984 188.772 565.461 197.484C570.769 200.058 575.795 203.174 580.46 206.783C590.758 214.913 597.835 225.948 601.91 238.21C605.144 248.175 606.487 258.656 605.867 269.114Z" fill="#0019FF"/>
<path opacity="0.18" d="M559.731 344.531C546.102 353.665 531.132 360.625 515.361 365.158C483.73 374.413 450.474 375.45 417.527 375.861L410.62 375.95L319.613 377.016L273.389 377.56L170.502 378.758L162.697 378.846L130.089 379.228C119.717 379.353 109.154 379.419 98.6864 378.846C78.7078 377.802 59.1191 374.399 41.9284 364.592C33.1122 359.5 25.42 352.676 19.3164 344.531H559.731Z" fill="#68E1FD"/>
<path opacity="0.05" d="M459.426 361.041C459.64 364.107 457.462 367.069 458.08 370.076C458.992 374.487 464.031 373.752 468.548 373.421C479.523 372.524 493.558 370.848 504.246 368.091C514.139 365.533 521.341 363.063 530.771 360.005C531.507 359.762 531.279 357.674 531.315 356.903C531.374 355.881 530.021 355.498 528.998 355.432C519.671 355.131 510.241 355.432 501.09 353.594C496.978 352.756 492.947 351.477 488.776 350.999C483.627 350.419 478.478 351.051 473.329 350.661C469.599 350.375 460.515 346.295 457.05 347.971C451.857 350.536 459.169 357.336 459.426 361.041ZM243.318 363.805C254.094 366.827 262.811 373.222 272.3 378.177C238.002 378.564 203.706 378.961 169.413 379.368C172.29 376.626 175.503 374.259 178.976 372.325C190.252 366.018 203.5 364.562 216.344 363.225C225.318 362.284 234.594 361.365 243.318 363.805ZM418.233 372.862C418.077 373.844 417.655 374.764 417.012 375.523C416.784 375.818 416.592 376.139 416.438 376.479L409.531 376.567L318.51 377.611C320.16 376.33 321.656 374.863 322.967 373.237C324.865 370.885 326.38 368.216 328.587 366.172C335.104 360.13 345.425 361.254 353.869 363.967C356.437 364.805 359.018 365.761 361.725 365.724C366.521 365.665 370.641 362.548 374.966 360.402C388.552 353.624 406.537 357.255 416.424 368.775C417.395 369.966 418.358 371.348 418.233 372.862Z" fill="#000405"/>
<path d="M369.685 269.827L352.862 352.506L341.556 351.213L340.254 351.058C340.254 351.058 343.49 326.549 344.888 291.594C345.808 268.438 349.772 249.53 351.67 233.813C352.258 229.483 353.243 225.216 354.613 221.066C356.908 214.112 360.402 207.606 364.845 208.275C374.657 209.745 387.582 218.221 389.288 223.529C392.26 232.792 369.685 269.827 369.685 269.827Z" fill="#25233A"/>
<path opacity="0.24" d="M357.922 221.302C357.922 221.302 350.383 279.656 350.14 297.865C349.897 316.074 342.401 351.058 342.401 351.058L341.533 351.213L340.231 351.058C340.231 351.058 343.468 326.549 344.866 291.594C345.785 268.438 349.75 249.53 351.648 233.813C352.235 229.483 353.22 225.216 354.59 221.066C355.706 221.016 356.824 221.095 357.922 221.302Z" fill="white"/>
<path d="M408.252 352.374H395.784C395.782 352.35 395.782 352.325 395.784 352.301C395.445 350.617 389.163 319.521 380.285 296.997C373.664 280.2 370.465 245.987 369.251 228.476C368.765 221.86 368.574 217.626 368.574 217.626C368.574 217.626 393.967 210.135 397.262 213.458C400.558 216.781 404.302 231.836 404.302 231.836C404.302 231.836 395.607 291.454 401.139 295.498C406.67 299.541 408.252 352.374 408.252 352.374Z" fill="#3F3D56"/>
<path d="M210.378 114.091C210.378 114.091 191.886 119.788 184.397 173.129C181.69 192.36 198.903 226.33 198.903 226.33L210.378 114.091Z" fill="#2D69D1"/>
<path opacity="0.61" d="M210.378 114.091C210.378 114.091 191.886 119.788 184.397 173.129C181.69 192.36 198.903 226.33 198.903 226.33L210.378 114.091Z" fill="url(#paint0_linear_172_395)"/>
<path d="M196.873 219.67C195.739 219.482 194.577 219.569 193.483 219.921C192.389 220.274 191.395 220.883 190.584 221.697C189.773 222.511 189.168 223.507 188.82 224.602C188.472 225.697 188.391 226.859 188.583 227.991C189.995 236.327 192.688 247.898 197.41 254.456C205.377 265.431 216.263 280.575 216.263 280.575L227.518 357.763L241.398 355.888L241.273 281.92L225.605 224.411L196.873 219.67Z" fill="#25233A"/>
<path d="M225.569 224.411L223.767 288.661L194.012 357.814L184.045 353.572L181.146 352.33L197.624 287.492C197.624 287.492 191.209 269.849 186.487 256.985C181.956 244.642 188.12 220.184 188.635 218.214V218.082L225.569 224.411Z" fill="#3F3D56"/>
<path d="M348.779 183.318L312.066 201.505L305.21 192.779L303.452 190.529L334.818 173.511C334.818 173.511 345.594 149.568 347.933 138.563C348.382 136.52 348.831 134.888 349.25 133.484C350.066 130.933 357.856 121.92 360.475 121.384C363.094 120.847 360.144 128.889 361.887 130.94C363.801 133.753 364.78 137.097 364.683 140.497C364.984 147.319 348.779 183.318 348.779 183.318Z" fill="#2D69D1"/>
<path d="M397.217 204.614C397.217 204.614 378.982 226.514 357.959 221.302C356.512 220.937 355.095 220.46 353.722 219.875C352.831 219.493 352.024 218.937 351.348 218.241C350.673 217.545 350.141 216.723 349.785 215.821C349.429 214.919 349.255 213.955 349.273 212.986C349.291 212.016 349.5 211.06 349.89 210.172C351.92 205.57 351.979 198.917 351.795 192.779C351.368 178.657 347.793 163.374 347.528 157.015C347.352 152.95 348.007 147.194 349.206 141.445C351.317 131.227 355.127 121.045 358.996 120.457C370.501 118.686 374.444 121.817 374.444 121.817L394.084 133.219C403.838 143.437 399.086 159.434 397.217 204.614Z" fill="#2D69D1"/>
<path d="M368.39 146.936L373.414 155.023L359.504 169.086L356.643 171.982L371.759 120.781L371.818 115.657L373.738 117.62V117.627L376.253 120.2L377.217 141.401L368.39 146.936Z" fill="#2D69D1"/>
<path opacity="0.61" d="M395.35 159.015L393.216 214.215C393.216 214.215 363.204 228.469 359.239 212.451C356.172 200.071 364.021 185.95 364.021 185.95L395.35 159.015Z" fill="url(#paint1_linear_172_395)"/>
<path d="M365.793 189.625L356.768 225.948L412.54 237.386L420.558 201.85L365.793 189.625Z" fill="white"/>
<path d="M372.208 107.556C372.208 107.718 372.009 115.944 371.722 121.178C371.516 125.228 369.619 128.081 366.72 130.903C365.037 132.661 363.012 134.057 360.769 135.005C360.227 135.205 359.64 135.252 359.073 135.14C358.506 135.029 357.98 134.763 357.554 134.373C357.127 133.983 356.817 133.483 356.656 132.928C356.496 132.373 356.491 131.784 356.643 131.227C356.93 130.139 357.217 128.875 357.437 127.551C357.908 124.824 358.114 121.869 357.371 119.781C357.352 119.703 357.327 119.627 357.297 119.553C356.856 118.473 357.297 117.296 358.298 116.113C359.703 114.444 362.16 112.753 364.609 111.327C367.069 109.928 369.606 108.669 372.208 107.556Z" fill="url(#paint2_linear_172_395)"/>
<path d="M359.041 127C358.537 127.252 358.003 127.44 357.452 127.559C357.923 124.831 358.129 121.876 357.386 119.788L358.313 116.113L359.011 113.378L364.624 111.327L370.31 109.254C368.942 119.369 363.528 124.875 359.041 127Z" fill="url(#paint3_linear_172_395)"/>
<path d="M357.496 78.8126C355.27 78.9492 353.096 79.5444 351.111 80.5606C349.126 81.5769 347.372 82.9923 345.96 84.7181C344.548 86.4438 343.509 88.4426 342.906 90.589C342.304 92.7354 342.153 94.9829 342.461 97.1907C342.975 103.759 344.675 110.179 347.478 116.142C352.767 125.111 366.051 117.686 368.148 113.981C370.244 110.276 378.152 93.5151 374.812 88.7588C372.605 85.4655 366.118 78.4156 357.496 78.8126Z" fill="url(#paint4_linear_172_395)"/>
<path d="M343.431 72.4905L346.168 73.8873C344.537 73.8543 342.921 74.209 341.454 74.9222C339.987 75.6354 338.711 76.6866 337.73 77.9892C335.231 80.4953 333.818 83.8827 333.795 87.4209L338.436 85.2155C338.436 85.2155 338.091 90.9421 346.888 91.3612C355.686 91.7802 364.999 92.0963 364.999 92.0963L362.012 87.9722C362.012 87.9722 367.485 90.1776 368.441 92.1698C369.318 95.4058 369.948 98.7038 370.324 102.035C370.324 102.035 372.494 96.3821 373.399 97.6244C374.304 98.8668 372.457 103.983 371.317 105.108C370.177 106.233 370.368 109.6 370.265 109.879C370.162 110.158 375.716 105.534 375.959 103.946C376.202 102.359 381.704 86.3035 378.092 82.9513L380.299 82.7823C379.004 81.9083 377.528 81.3402 375.981 81.1209C375.981 81.1209 361.49 62.2429 343.431 72.4905Z" fill="#3F3D56"/>
<path d="M286.247 198.057C288.651 195.958 291.284 194.136 294.095 192.624C296.299 191.848 298.598 191.373 300.929 191.213C300.929 191.213 301.312 194.425 299.458 194.639C297.604 194.852 296.06 197.667 296.06 197.667C296.06 197.667 307.954 202.534 309.594 202.078C311.235 201.622 310.911 203.989 307.902 203.835C304.894 203.681 304.158 207.886 302.077 207.827C299.995 207.768 296.699 209.054 293.639 209.165C290.547 208.907 287.509 208.199 284.621 207.062L286.247 198.057Z" fill="url(#paint5_linear_172_395)"/>
<path d="M240.214 163.918L230.239 219.971C230.239 219.971 226.797 230.696 208.981 229.094C202.462 228.543 196.331 225.771 191.614 221.243L191.327 220.971L191.128 220.765C187.716 217.392 185.043 213.346 183.279 208.885C183.279 208.885 194.725 129.874 206.745 116.12C207.944 114.753 209.143 114.025 210.349 114.091C213.641 114.53 216.785 115.734 219.529 117.605C227.24 122.348 233.339 129.306 237.03 137.568C240.72 145.831 241.83 155.015 240.214 163.918Z" fill="#2D69D1"/>
<path opacity="0.61" d="M221.464 162.065L208.959 229.087C208.959 229.087 228.121 231.718 230.217 219.971L236.124 185.883L221.464 162.065Z" fill="url(#paint6_linear_172_395)"/>
<path d="M210.378 114.091C210.378 114.091 212.283 99.6754 213.048 90.3026C213.813 80.9297 216.873 68.3738 232.615 69.9837C248.356 71.5937 248.408 95.3749 244.061 105.328C239.713 115.282 233.895 114.995 233.895 114.995C233.895 114.995 226.053 113.29 226.348 122.714L210.378 114.091Z" fill="url(#paint7_linear_172_395)"/>
<path d="M216.19 67.9916C213.898 70.1927 212.244 72.9712 211.401 76.0339C210.695 78.5163 210.217 81.0582 209.974 83.6277L211.578 81.8707C211.498 86.2694 211.172 90.6601 210.599 95.0221C210.002 99.0856 209.755 103.193 209.864 107.299L212.806 107.152L216.484 111.665L220.544 108.916L223.597 107.291L226.319 100.572C225.644 100.085 225.148 99.3886 224.909 98.5912C224.669 97.7939 224.7 96.9399 224.995 96.1615C225.995 93.4195 228.481 92.7873 229.063 94.4046C229.506 96.4196 229.752 98.4729 229.798 100.536L234.138 88.2516C234.138 88.2516 236.86 84.4363 239.243 87.0607C240.673 88.6482 242.479 89.8514 244.495 90.5599L243.061 86.502L246.996 87.5091L246.687 82.8191L249.63 84.87C249.63 84.87 250.917 77.2762 248.423 73.9094C245.93 70.5425 235.999 57.0971 216.19 67.9916Z" fill="#3F3D56"/>
<path d="M286.578 196.535L284.584 207.062L284.047 209.893L248.143 207.217C238.205 206.364 228.452 199.571 227.216 189.64L214.792 145.804C214.232 144.007 214.137 142.097 214.516 140.253C214.896 138.41 215.737 136.692 216.961 135.262C218.185 133.831 219.753 132.734 221.517 132.073C223.28 131.413 225.183 131.21 227.047 131.484C229.412 131.836 231.632 132.845 233.453 134.395C235.273 135.946 236.622 137.976 237.345 140.254L245.164 179.488C245.624 181.792 246.737 183.914 248.372 185.602C250.006 187.291 252.092 188.473 254.381 189.008L286.578 196.535Z" fill="#2D69D1"/>
<path d="M305.21 192.771L300.208 194.33C300.208 194.33 293.956 194.889 291.874 196.668C289.792 198.447 290.954 199.248 290.954 199.248C290.954 199.248 297.575 198.278 299.002 198.829C300.429 199.38 307.409 202.152 309.616 202.115C311.823 202.078 312.066 201.505 312.066 201.505L305.21 192.771Z" fill="url(#paint8_linear_172_395)"/>
<path d="M290.123 205.864C290.491 205.536 290.931 205.299 291.408 205.171C291.884 205.044 292.384 205.029 292.867 205.129C292.975 205.147 293.075 205.199 293.154 205.276C293.201 205.365 293.226 205.465 293.226 205.566C293.226 205.668 293.201 205.767 293.154 205.857C292.822 206.977 292.294 208.03 291.594 208.966C292.374 208.702 292.735 207.834 293.227 207.18C293.599 206.689 294.076 206.288 294.624 206.006C295.171 205.723 295.775 205.567 296.39 205.548C296.538 205.534 296.687 205.564 296.817 205.636C297.119 205.842 296.986 206.312 296.817 206.643C296.508 207.261 296.206 207.886 295.898 208.51C296.674 207.382 297.578 206.346 298.59 205.423C298.829 205.163 299.134 204.973 299.473 204.872C299.642 204.819 299.825 204.83 299.987 204.902C300.149 204.973 300.28 205.101 300.355 205.261C300.418 205.457 300.418 205.668 300.355 205.864C300.141 206.714 299.767 207.515 299.252 208.224C299.874 207.199 300.653 206.279 301.562 205.496C301.626 205.421 301.708 205.362 301.8 205.325C301.892 205.288 301.992 205.274 302.091 205.283C302.203 205.32 302.295 205.399 302.349 205.504C302.658 206.018 302.349 206.673 302.025 207.187C301.429 208.136 300.672 209.15 299.561 209.319C299.311 209.331 299.064 209.375 298.825 209.451C298.654 209.539 298.494 209.645 298.347 209.767C297.965 210.03 297.514 210.176 297.05 210.186C296.586 210.197 296.129 210.072 295.736 209.826C295.199 210.167 294.575 210.343 293.939 210.332C293.304 210.322 292.686 210.125 292.161 209.767C292.044 209.656 291.892 209.589 291.731 209.577C291.57 209.565 291.41 209.609 291.278 209.701C290.799 209.864 290.282 209.875 289.797 209.731C289.312 209.588 288.884 209.297 288.571 208.9C287.909 207.937 289.395 206.474 290.123 205.864Z" fill="url(#paint9_linear_172_395)"/>
<path d="M397.91 224.139L385.625 219.897L385.206 219.75L394.158 190.992C394.158 190.992 382.389 158.684 380.432 148.745C379.801 145.452 379.771 142.073 380.344 138.769C380.633 137.054 381.433 135.465 382.641 134.213C383.848 132.96 385.407 132.101 387.111 131.749C389.018 131.33 391.011 131.59 392.746 132.484C394.277 133.278 395.752 134.177 397.159 135.174C398.288 135.994 399.088 137.187 399.418 138.541C401.624 147.598 410.503 184.545 410.834 188.052C411.194 192.073 397.91 224.139 397.91 224.139Z" fill="#2D69D1"/>
<path d="M381.998 222.338C381.395 222.912 380.821 223.941 381.461 224.485C381.616 224.617 381.829 224.691 381.954 224.852C382.263 225.242 381.88 225.786 381.527 226.131L378.585 228.991C377.496 230.042 376.312 231.358 376.562 232.85C376.682 233.382 376.944 233.87 377.32 234.265C377.695 234.66 378.171 234.946 378.695 235.093C379.751 235.367 380.861 235.355 381.91 235.056C381.892 235.365 381.965 235.673 382.121 235.941C382.277 236.209 382.508 236.425 382.785 236.563C383.348 236.828 383.958 236.978 384.58 237.004C386.373 237.324 388.213 237.274 389.987 236.857C390.119 237.055 390.251 237.247 390.391 237.438C392.716 237.026 393.981 234.541 394.805 232.336C395.629 230.131 396.467 227.675 397.173 225.301C397.304 224.981 397.328 224.628 397.24 224.294C397.129 224.097 396.98 223.926 396.8 223.791C396.62 223.655 396.414 223.559 396.195 223.507C393.385 222.441 390.582 221.353 387.765 220.302C385.161 219.332 383.977 220.493 381.998 222.338Z" fill="url(#paint10_linear_172_395)"/>
<path d="M183.029 352.911L178.8 360.6L183.052 363.033L184.633 361.769L191.489 368.076C191.489 368.076 193.938 369.76 199.933 369.745C205.928 369.73 207.113 368.885 207.113 368.885C207.113 368.885 207.113 360.064 199.757 360.468C192.401 360.872 191.893 356.689 191.893 356.689L183.029 352.911Z" fill="url(#paint11_linear_172_395)"/>
<path d="M229.827 357.527L229.136 368.892H234.285V364.599L241.273 368.863L258.552 368.819C258.552 368.819 258.552 357.057 250.784 357.674C243.016 358.292 239.883 357.674 239.883 357.674L238.654 356.035L229.827 357.527Z" fill="url(#paint12_linear_172_395)"/>
<path d="M407.56 352.345L408.295 363.702H403.146V359.409L396.21 363.717L378.931 363.761C378.931 363.761 378.931 351.999 386.647 352.58C394.363 353.161 397.548 352.58 397.548 352.58L398.762 350.933L407.56 352.345Z" fill="url(#paint13_linear_172_395)"/>
<path d="M351.236 352.484L351.971 363.835H346.822V359.542L339.841 363.864L322.562 363.908C322.562 363.908 322.562 352.146 330.279 352.727C337.995 353.308 341.18 352.727 341.18 352.727L342.394 351.08L351.236 352.484Z" fill="url(#paint14_linear_172_395)"/>
<path d="M368.39 146.936L373.414 155.023L359.504 169.086L356.643 171.982L371.759 120.781L371.818 115.657L373.738 117.62V117.627L376.253 120.2L377.217 141.401L368.39 146.936Z" fill="#2D69D1"/>
<path d="M357.452 127.559L355.576 136.38L356.643 171.975L370.347 125.566L364.462 129.286C364.146 129.485 363.822 129.668 363.484 129.838C362.943 130.109 362.351 130.266 361.747 130.296C361.142 130.327 360.538 130.231 359.973 130.016C359.407 129.8 358.893 129.469 358.463 129.043C358.032 128.617 357.696 128.107 357.474 127.544L357.452 127.559Z" fill="white"/>
<path d="M357.541 120.45L351.428 131.896L353.458 136.674L350.141 143.842L356.621 171.975C356.621 171.975 354.848 137.586 357.43 127.544C357.452 127.559 358.306 122.751 357.541 120.45Z" fill="#2D69D1"/>
<path opacity="0.61" d="M368.39 146.936L373.414 155.023L359.504 169.086L356.643 171.982L371.759 120.781L371.818 115.657L373.738 117.62V117.627L376.253 120.2L377.217 141.401L368.39 146.936Z" fill="url(#paint15_linear_172_395)"/>
<path opacity="0.61" d="M357.541 120.45L351.428 131.896L353.458 136.674L350.141 143.842L356.621 171.975C356.621 171.975 354.848 137.586 357.43 127.544C357.452 127.559 358.306 122.751 357.541 120.45Z" fill="url(#paint16_linear_172_395)"/>
<path d="M209.879 111.68L227.937 120.656L232.822 130.117L206.76 116.105L209.879 111.68Z" fill="#2D69D1"/>
<path opacity="0.61" d="M209.879 111.68L227.937 120.656L232.822 130.117L206.76 116.105L209.879 111.68Z" fill="url(#paint17_linear_172_395)"/>
<path d="M161.609 236.136V379.485H145.816V314.456H3.36164C1.25256 306.706 0.123224 298.721 0 290.69L0 288.661C0.12505 269.621 6.0024 250.787 18.25 236.166L161.609 236.136ZM178.461 227.918V236.136H18.25C19.0255 235.204 19.8251 234.292 20.648 233.402C22.384 231.535 24.2671 229.726 26.2605 227.918H178.461ZM91.3233 180.598C89.5138 178.863 87.3511 177.54 85.4386 175.952C84.7619 175.393 84.0483 174.643 84.1808 173.746C84.2656 173.399 84.45 173.084 84.7113 172.84C84.9726 172.596 85.2995 172.433 85.6519 172.372C86.3671 172.273 87.095 172.318 87.7925 172.504L83.6732 167.873C83.2907 167.439 82.8788 166.844 83.1583 166.336C83.4378 165.829 84.2249 165.859 84.7692 166.116C85.2613 166.457 85.8348 166.662 86.4317 166.711C84.9605 164.646 83.0921 162.962 81.5253 160.999C79.9585 159.037 78.7006 156.589 78.936 154.119C78.9399 153.759 79.0671 153.411 79.2964 153.134C79.7672 152.663 80.5617 152.862 81.1722 153.134C85.5299 155.029 89.0254 158.478 90.9776 162.808C90.2983 160.7 90.0238 158.483 90.1684 156.273C90.1535 156.015 90.1959 155.758 90.2926 155.519C90.3893 155.28 90.5378 155.065 90.7275 154.891C91.4631 154.383 92.4341 155.258 92.8607 156.074C95.7589 161.713 93.736 168.571 94.9203 174.812C95.0748 173.077 95.8849 171.466 97.186 170.306C97.546 173.519 97.422 176.768 96.8182 179.944C97.7229 180.341 97.6494 181.634 97.4213 182.605C97.1288 184.093 96.7606 185.565 96.318 187.015C94.6997 186.883 94.6702 186.001 94.1627 184.7C93.5238 183.144 92.5551 181.744 91.3233 180.598Z" fill="#AEEE6A"/>
<path d="M104.292 161.382C105.814 159.654 107.639 158.015 109.897 157.544C110.581 158.86 109.897 160.485 108.948 161.639C107.999 162.793 106.822 163.844 106.344 165.212C108.314 162.861 110.98 161.196 113.957 160.455C115.015 160.097 116.17 160.163 117.179 160.639C117.324 160.716 117.451 160.82 117.555 160.946C117.658 161.072 117.736 161.218 117.782 161.374C117.959 162.183 116.929 162.668 116.12 162.845C110.442 164.34 105.459 167.756 102.019 172.511C105.375 170.483 109.309 169.623 113.207 170.063C113.884 170.144 114.678 170.35 114.928 170.975C115.318 171.901 114.266 172.783 113.31 173.1C109.632 174.32 105.027 173.019 102.056 175.533C103.665 175.36 105.28 175.807 106.572 176.783C107.609 177.569 108.374 179.179 107.462 180.105C107.154 180.346 106.796 180.516 106.415 180.603C106.033 180.689 105.637 180.69 105.255 180.605C103.129 180.421 100.511 180.069 99.2897 181.818C98.6203 182.781 98.6718 184.023 98.4217 185.2C98.2231 186.133 97.4507 187.787 96.4356 186.876C95.7589 186.266 96.0237 184.134 96.0237 183.325C96.0739 175.269 99.0007 167.495 104.277 161.404L104.292 161.382Z" fill="#68E1FD"/>
<path opacity="0.61" d="M91.323 180.598C89.5134 178.863 87.3508 177.54 85.4383 175.952C84.7615 175.393 84.048 174.643 84.1804 173.746C84.2653 173.399 84.4496 173.084 84.711 172.84C84.9723 172.596 85.2992 172.433 85.6516 172.372C86.3668 172.273 87.0946 172.318 87.7922 172.504L83.6729 167.873C83.2904 167.439 82.8784 166.844 83.1579 166.336C83.4375 165.829 84.2245 165.859 84.7689 166.116C85.261 166.457 85.8344 166.662 86.4313 166.711C84.9601 164.646 83.0917 162.962 81.5249 160.999C79.9581 159.037 78.7003 156.589 78.9357 154.119C78.9395 153.759 79.0667 153.411 79.2961 153.134C79.7669 152.663 80.5613 152.862 81.1719 153.134C85.5295 155.029 89.0251 158.478 90.9773 162.808C90.298 160.7 90.0234 158.483 90.1681 156.273C90.1532 156.015 90.1956 155.758 90.2923 155.519C90.3889 155.28 90.5375 155.065 90.7272 154.891C91.4627 154.383 92.4337 155.258 92.8604 156.074C95.7586 161.713 93.7357 168.571 94.92 174.812C95.0744 173.077 95.8846 171.466 97.1856 170.306C97.5456 173.519 97.4217 176.767 96.8178 179.944C97.7226 180.341 97.649 181.634 97.421 182.605C97.1285 184.093 96.7602 185.565 96.3176 187.015C94.6993 186.883 94.6699 186.001 94.1624 184.7C93.5235 183.144 92.5548 181.744 91.323 180.598Z" fill="url(#paint18_linear_172_395)"/>
<path opacity="0.61" d="M104.292 161.382C105.814 159.654 107.639 158.015 109.897 157.544C110.581 158.86 109.897 160.485 108.948 161.639C107.999 162.793 106.822 163.844 106.344 165.212C108.314 162.861 110.98 161.196 113.957 160.455C115.015 160.097 116.17 160.163 117.179 160.639C117.324 160.716 117.451 160.82 117.555 160.946C117.658 161.072 117.736 161.218 117.782 161.374C117.959 162.183 116.929 162.668 116.12 162.845C110.442 164.34 105.459 167.756 102.019 172.511C105.375 170.483 109.309 169.623 113.207 170.064C113.884 170.144 114.678 170.35 114.928 170.975C115.318 171.901 114.266 172.783 113.31 173.1C109.632 174.32 105.027 173.019 102.056 175.533C103.665 175.36 105.28 175.807 106.572 176.783C107.609 177.569 108.374 179.179 107.462 180.105C107.154 180.346 106.796 180.516 106.415 180.603C106.033 180.689 105.637 180.69 105.255 180.605C103.129 180.421 100.511 180.069 99.2897 181.818C98.6203 182.781 98.6718 184.024 98.4217 185.2C98.2231 186.133 97.4507 187.787 96.4356 186.876C95.7589 186.266 96.0237 184.134 96.0237 183.325C96.0739 175.269 99.0007 167.495 104.277 161.404L104.292 161.382Z" fill="url(#paint19_linear_172_395)"/>
<path d="M105.836 227.837L97.4211 227.881L89.0942 227.918C70.7781 217.03 91.9115 194.962 91.9115 194.962C91.9115 194.962 92.7501 191.522 91.6541 189.353C91.4046 188.828 91.0087 188.387 90.5139 188.081C87.8143 186.464 91.5805 185.825 91.5805 185.825H102.879C102.879 185.825 106.748 186.148 103.843 188.184C100.937 190.221 102.556 194.962 102.556 194.962C125.197 220.081 105.836 227.837 105.836 227.837Z" fill="white"/>
<path opacity="0.51" d="M98.0316 227.219C97.8457 227.456 97.6416 227.677 97.4211 227.881L89.0942 227.918C70.7781 217.031 91.9115 194.962 91.9115 194.962C91.9115 194.962 92.7501 191.522 91.6541 189.353C95.332 189.074 97.1048 193.815 96.6119 196.829C96.2368 199.152 95.8764 201.483 95.4718 203.806C95.002 205.978 94.8779 208.211 95.104 210.422C95.56 213.362 97.2372 215.957 98.3332 218.721C99.4292 221.485 99.8632 224.867 98.0316 227.219Z" fill="url(#paint20_linear_172_395)"/>
<path opacity="0.61" d="M161.609 236.136L79.3112 259.499C65.0368 263.551 51.7638 270.531 40.3376 279.993C28.9115 289.455 19.583 301.192 12.9464 314.456H3.38371C1.26717 306.707 0.130421 298.722 0 290.69L0 288.661C0.12505 269.621 6.0024 250.787 18.25 236.166L161.609 236.136Z" fill="url(#paint21_linear_172_395)"/>
<path opacity="0.61" d="M145.815 314.457H153.363V379.368H145.815V314.457Z" fill="url(#paint22_linear_172_395)"/>
<path d="M604.977 269.967C604.376 281.709 601.372 293.202 596.15 303.738C594.215 307.576 592.028 311.282 589.604 314.831C581.453 326.799 570.795 336.885 558.709 345.148C549.954 351.059 540.606 356.041 530.815 360.012L511.315 356.417L473.94 349.529C472.108 349.191 470.335 348.978 468.658 348.794C461.766 348.015 456.403 347.633 454.38 340.642C451.872 332.033 454.38 318.86 454.38 309.833C454.38 294.145 456.021 275.466 469.688 267.761C481.031 261.381 495.434 265.887 508.093 262.932C509.314 262.737 510.464 262.23 511.433 261.461C512.904 260.101 513.132 257.896 513.169 255.897C513.485 240.716 508.409 223.691 517.487 211.517C524.431 202.21 537.134 199.645 548.698 198.572C552.257 198.231 555.832 198.076 559.408 198.108C561.144 198.108 562.877 198.182 564.608 198.329C576.591 199.255 588.007 203.1 594.098 212.958C597.357 218.221 598.512 224.47 599.6 230.564C600.093 233.38 600.586 236.217 601.071 239.055C602.69 249.244 604.161 259.616 604.977 269.967Z" fill="#3F3D56"/>
<path d="M604.978 269.967C604.376 281.709 601.372 293.202 596.15 303.738C594.215 307.576 592.028 311.282 589.604 314.831C585.124 316.735 579.732 316.713 574.738 316.787C566.876 316.905 559.032 317.578 551.265 318.801C547.778 319.345 544.144 320.073 541.408 322.308C537.796 325.248 536.546 330.269 536.347 334.937C536.149 339.605 536.774 344.332 535.979 348.941C535.792 350.495 535.201 351.972 534.265 353.227C532.39 355.484 529.116 355.888 526.174 356.072C521.201 356.376 516.226 356.498 511.249 356.439C498.731 356.278 486.255 354.969 473.977 352.528C471.851 352.102 469.372 351.345 468.695 349.279C468.646 349.126 468.612 348.968 468.592 348.809C468.479 347.838 468.569 346.854 468.857 345.92L475.588 317.125C476.5 313.214 477.441 309.23 479.523 305.797C483.672 298.923 491.557 295.409 498.95 292.3L518.855 283.912C524.298 281.633 527.998 281.339 527.513 274.936C526.446 260.778 523.474 247.002 523.474 232.711C523.474 228.609 523.666 224.367 525.431 220.677C527.196 216.986 530.367 214.178 533.625 211.708C541.447 205.883 550.118 201.294 559.334 198.101C561.07 198.101 562.804 198.175 564.535 198.322C576.518 199.248 587.934 203.093 594.025 212.951C597.283 218.214 598.438 224.463 599.527 230.557C600.02 233.372 600.513 236.21 600.998 239.047C602.065 245.494 603.043 252.008 603.83 258.536C604.286 262.329 604.654 266.151 604.978 269.967Z" fill="#25233A"/>
<path d="M604.978 269.967C604.376 281.708 601.372 293.202 596.151 303.738C594.215 307.576 592.028 311.282 589.604 314.831C585.124 316.735 579.732 316.713 574.738 316.787C566.876 316.905 559.032 317.578 551.265 318.801C547.778 319.345 544.145 320.073 541.408 322.307C541.408 322.307 545.976 297.078 564.609 288.58C583.241 280.082 603.83 258.521 603.83 258.521C604.286 262.329 604.654 266.151 604.978 269.967Z" fill="#3F3D56"/>
<path d="M196.063 217.837C195.959 217.746 195.859 217.651 195.763 217.553L195.83 217.612C195.918 217.677 195.996 217.752 196.063 217.837Z" fill="url(#paint23_linear_172_395)"/>
<path opacity="0.24" d="M187.906 206.136C187.906 206.136 188.972 217.964 191.709 220.971C188.22 217.52 185.487 213.382 183.684 208.819C183.684 208.819 195.453 128.044 207.708 113.988L211.003 115.738L187.906 206.136ZM347.543 142.371L347.712 150.458L337.149 177.032L304.872 193.94L303.062 191.625L335.141 174.217C335.141 174.217 345.153 153.604 347.543 142.371ZM285.276 206.07L284.731 208.966L248.011 206.232C237.845 205.357 227.87 198.41 226.605 188.258L213.931 143.415C213.358 141.575 213.259 139.62 213.645 137.732C214.031 135.844 214.888 134.084 216.138 132.616C216.138 132.616 227.973 188.118 232.321 193.088C236.668 198.057 244.951 201.034 244.951 201.034L285.276 206.07Z" fill="white"/>
<path opacity="0.24" d="M203.478 293.072L183.728 355.41L180.785 354.146L197.637 287.838C197.637 287.838 191.076 269.79 186.251 256.632C181.616 244.01 187.92 219.001 188.457 216.986L190.98 219.596C190.98 219.596 184.36 249.192 192.878 263.262C201.396 277.333 203.478 293.072 203.478 293.072ZM358.415 221.243C356.935 220.866 355.486 220.374 354.082 219.773C353.169 219.383 352.342 218.816 351.649 218.105C350.957 217.394 350.412 216.552 350.047 215.629C349.683 214.706 349.505 213.72 349.525 212.727C349.544 211.735 349.761 210.756 350.162 209.848C352.243 205.144 352.302 198.336 352.111 192.058C351.677 177.621 348.021 162.014 347.749 155.486C347.572 151.333 348.242 145.444 349.463 139.563L351.773 129.793C351.773 129.793 349.654 145.643 349.11 149.987C348.566 154.332 353.56 179.069 355.37 182.656C357.179 186.244 353.979 207.356 354.413 212.37C354.847 217.383 358.415 221.243 358.415 221.243ZM399.38 352.521L396.371 353.991C396.026 352.264 389.589 320.47 380.519 297.431C373.745 280.251 370.479 245.237 369.206 227.359L372.936 228.094C372.936 228.094 378.467 273.745 384.543 290.624C390.619 307.502 399.38 352.521 399.38 352.521ZM397.556 189.419L387.802 220.816L385.595 220.397L385.161 220.25L394.319 190.845C394.319 190.845 382.329 157.809 380.299 147.635C379.651 144.267 379.618 140.81 380.203 137.431C380.497 135.676 381.316 134.051 382.551 132.769C383.787 131.487 385.381 130.609 387.125 130.249C387.125 130.249 380.505 134.858 382.52 145.047C385.154 158.14 397.556 189.419 397.556 189.419ZM375.26 122.148L360.011 170.49L357.084 173.452L372.546 121.09L372.605 115.848L374.569 117.855V117.862L375.26 122.148Z" fill="white"/>
</g>
<defs>
<linearGradient id="paint0_linear_172_395" x1="240.957" y1="189.191" x2="152.46" y2="142.906" gradientUnits="userSpaceOnUse">
<stop offset="0.17" stop-color="#00272E"/>
<stop offset="1" stop-color="#69B9EB" stop-opacity="0"/>
</linearGradient>
<linearGradient id="paint1_linear_172_395" x1="360.055" y1="263.777" x2="395.056" y2="139.803" gradientUnits="userSpaceOnUse">
<stop offset="0.17" stop-color="#00272E"/>
<stop offset="1" stop-color="#69B9EB" stop-opacity="0"/>
</linearGradient>
<linearGradient id="paint2_linear_172_395" x1="356.529" y1="121.384" x2="372.256" y2="121.346" gradientUnits="userSpaceOnUse">
<stop stop-color="#ECC4D7"/>
<stop offset="0.42" stop-color="#EFD4D1"/>
<stop offset="1" stop-color="#F2EAC9"/>
</linearGradient>
<linearGradient id="paint3_linear_172_395" x1="366.829" y1="109.964" x2="339.229" y2="156.169" gradientUnits="userSpaceOnUse">
<stop stop-color="#ECC4D7"/>
<stop offset="0.42" stop-color="#EFD4D1"/>
<stop offset="1" stop-color="#F2EAC9"/>
</linearGradient>
<linearGradient id="paint4_linear_172_395" x1="342.316" y1="99.6001" x2="375.638" y2="99.5186" gradientUnits="userSpaceOnUse">
<stop stop-color="#ECC4D7"/>
<stop offset="0.42" stop-color="#EFD4D1"/>
<stop offset="1" stop-color="#F2EAC9"/>
</linearGradient>
<linearGradient id="paint5_linear_172_395" x1="283.163" y1="206.161" x2="300.452" y2="199.371" gradientUnits="userSpaceOnUse">
<stop stop-color="#ECC4D7"/>
<stop offset="0.42" stop-color="#EFD4D1"/>
<stop offset="1" stop-color="#F2EAC9"/>
</linearGradient>
<linearGradient id="paint6_linear_172_395" x1="290.094" y1="183.34" x2="178.304" y2="202.793" gradientUnits="userSpaceOnUse">
<stop offset="0.17" stop-color="#00272E"/>
<stop offset="1" stop-color="#69B9EB" stop-opacity="0"/>
</linearGradient>
<linearGradient id="paint7_linear_172_395" x1="230.56" y1="97.697" x2="239.68" y2="100.508" gradientUnits="userSpaceOnUse">
<stop stop-color="#ECC4D7"/>
<stop offset="0.42" stop-color="#EFD4D1"/>
<stop offset="1" stop-color="#F2EAC9"/>
</linearGradient>
<linearGradient id="paint8_linear_172_395" x1="304.103" y1="193.371" x2="286.92" y2="234.198" gradientUnits="userSpaceOnUse">
<stop stop-color="#ECC4D7"/>
<stop offset="0.42" stop-color="#EFD4D1"/>
<stop offset="1" stop-color="#F2EAC9"/>
</linearGradient>
<linearGradient id="paint9_linear_172_395" x1="296.178" y1="204.498" x2="292.232" y2="218.983" gradientUnits="userSpaceOnUse">
<stop stop-color="#ECC4D7"/>
<stop offset="0.42" stop-color="#EFD4D1"/>
<stop offset="1" stop-color="#F2EAC9"/>
</linearGradient>
<linearGradient id="paint10_linear_172_395" x1="376.52" y1="228.708" x2="397.322" y2="228.657" gradientUnits="userSpaceOnUse">
<stop stop-color="#ECC4D7"/>
<stop offset="0.42" stop-color="#EFD4D1"/>
<stop offset="1" stop-color="#F2EAC9"/>
</linearGradient>
<linearGradient id="paint11_linear_172_395" x1="212.181" y1="353.352" x2="182.212" y2="366.591" gradientUnits="userSpaceOnUse">
<stop stop-color="#68E1FD"/>
<stop offset="0.01" stop-color="#67DDF9"/>
<stop offset="0.12" stop-color="#5CB3CE"/>
<stop offset="0.24" stop-color="#538EA9"/>
<stop offset="0.37" stop-color="#4C718B"/>
<stop offset="0.5" stop-color="#465A73"/>
<stop offset="0.63" stop-color="#424A63"/>
<stop offset="0.79" stop-color="#404059"/>
<stop offset="0.99" stop-color="#3F3D56"/>
</linearGradient>
<linearGradient id="paint12_linear_172_395" x1="259.729" y1="352.764" x2="233.545" y2="370.319" gradientUnits="userSpaceOnUse">
<stop stop-color="#68E1FD"/>
<stop offset="0.01" stop-color="#67DDF9"/>
<stop offset="0.12" stop-color="#5CB3CE"/>
<stop offset="0.24" stop-color="#538EA9"/>
<stop offset="0.37" stop-color="#4C718B"/>
<stop offset="0.5" stop-color="#465A73"/>
<stop offset="0.63" stop-color="#424A63"/>
<stop offset="0.79" stop-color="#404059"/>
<stop offset="0.99" stop-color="#3F3D56"/>
</linearGradient>
<linearGradient id="paint13_linear_172_395" x1="381.218" y1="348.978" x2="402.269" y2="364.914" gradientUnits="userSpaceOnUse">
<stop stop-color="#68E1FD"/>
<stop offset="0.01" stop-color="#67DDF9"/>
<stop offset="0.12" stop-color="#5CB3CE"/>
<stop offset="0.24" stop-color="#538EA9"/>
<stop offset="0.37" stop-color="#4C718B"/>
<stop offset="0.5" stop-color="#465A73"/>
<stop offset="0.63" stop-color="#424A63"/>
<stop offset="0.79" stop-color="#404059"/>
<stop offset="0.99" stop-color="#3F3D56"/>
</linearGradient>
<linearGradient id="paint14_linear_172_395" x1="316.693" y1="347.956" x2="357.728" y2="368.759" gradientUnits="userSpaceOnUse">
<stop stop-color="#68E1FD"/>
<stop offset="0.01" stop-color="#67DDF9"/>
<stop offset="0.12" stop-color="#5CB3CE"/>
<stop offset="0.24" stop-color="#538EA9"/>
<stop offset="0.37" stop-color="#4C718B"/>
<stop offset="0.5" stop-color="#465A73"/>
<stop offset="0.63" stop-color="#424A63"/>
<stop offset="0.79" stop-color="#404059"/>
<stop offset="0.99" stop-color="#3F3D56"/>
</linearGradient>
<linearGradient id="paint15_linear_172_395" x1="339.099" y1="159.338" x2="394.741" y2="124.94" gradientUnits="userSpaceOnUse">
<stop offset="0.17" stop-color="#00272E"/>
<stop offset="1" stop-color="#69B9EB" stop-opacity="0"/>
</linearGradient>
<linearGradient id="paint16_linear_172_395" x1="376.063" y1="144.768" x2="334.51" y2="147.948" gradientUnits="userSpaceOnUse">
<stop offset="0.17" stop-color="#00272E"/>
<stop offset="1" stop-color="#69B9EB" stop-opacity="0"/>
</linearGradient>
<linearGradient id="paint17_linear_172_395" x1="239.229" y1="86.8696" x2="205.564" y2="149.726" gradientUnits="userSpaceOnUse">
<stop offset="0.17" stop-color="#00272E"/>
<stop offset="1" stop-color="#69B9EB" stop-opacity="0"/>
</linearGradient>
<linearGradient id="paint18_linear_172_395" x1="78.9062" y1="169.983" x2="97.5681" y2="169.983" gradientUnits="userSpaceOnUse">
<stop offset="0.17" stop-color="#00272E"/>
<stop offset="1" stop-color="#69B9EB" stop-opacity="0"/>
</linearGradient>
<linearGradient id="paint19_linear_172_395" x1="95.9869" y1="172.335" x2="117.804" y2="172.335" gradientUnits="userSpaceOnUse">
<stop offset="0.17" stop-color="#00272E"/>
<stop offset="1" stop-color="#69B9EB" stop-opacity="0"/>
</linearGradient>
<linearGradient id="paint20_linear_172_395" x1="108.065" y1="173.592" x2="80.9883" y2="242.779" gradientUnits="userSpaceOnUse">
<stop stop-color="white" stop-opacity="0"/>
<stop offset="1" stop-color="#1A7FC1"/>
</linearGradient>
<linearGradient id="paint21_linear_172_395" x1="-74.2209" y1="212.657" x2="296.326" y2="360.968" gradientUnits="userSpaceOnUse">
<stop offset="0.17" stop-color="#00272E"/>
<stop offset="1" stop-color="#69B9EB" stop-opacity="0"/>
</linearGradient>
<linearGradient id="paint22_linear_172_395" x1="-89.6762" y1="251.265" x2="280.871" y2="399.577" gradientUnits="userSpaceOnUse">
<stop offset="0.17" stop-color="#00272E"/>
<stop offset="1" stop-color="#69B9EB" stop-opacity="0"/>
</linearGradient>
<linearGradient id="paint23_linear_172_395" x1="195.763" y1="217.695" x2="196.063" y2="217.695" gradientUnits="userSpaceOnUse">
<stop stop-color="#68E1FD"/>
<stop offset="1" stop-color="#69B9EB"/>
</linearGradient>
<clipPath id="clip0_172_395">
<rect width="606" height="379.456" fill="white"/>
</clipPath>
</defs>
</svg>
