<svg width="760" height="230" viewBox="0 0 760 230" fill="none" xmlns="http://www.w3.org/2000/svg">
<path d="M0 91.9694C0.855356 90.9677 9.40891 83.1546 10.2643 83.3149C10.7906 83.4351 17.8309 91.8091 17.8309 92.1697C17.7651 92.2899 4.47417 92.2098 0 91.9694ZM279.833 223.549C279.767 223.509 275.424 220.264 273.451 218.541C273.319 218.421 273.122 218.14 272.99 217.94C272.858 217.78 272.727 217.659 272.529 217.619C272.332 217.579 272.135 217.619 272.003 217.739L265.094 223.629C264.963 223.709 264.963 223.83 264.963 223.99C264.963 224.11 265.094 224.27 265.226 224.351C265.292 224.391 266.41 225.232 267.068 225.593C269.108 226.835 272.858 229.8 272.924 229.84C273.056 229.96 273.253 230 273.451 230C273.648 230 273.78 229.92 273.845 229.8C273.845 229.8 274.635 228.678 275.161 228.157C275.885 227.396 276.675 226.674 277.464 225.953C278.056 225.392 278.32 225.272 278.583 225.152C278.912 224.992 279.241 224.871 279.964 224.19C280.162 224.07 280.096 223.75 279.833 223.549ZM366.092 10.4331C366.487 10.5133 366.948 10.353 367.013 10.1126C367.013 10.0725 367.013 10.0325 367.013 9.95232C367.145 9.39138 368.856 4.90389 369.974 2.13927C370.04 2.01907 369.974 1.89886 369.843 1.81873C369.711 1.69853 369.514 1.65846 369.316 1.6184C369.185 1.6184 366.224 1.17766 365.566 1.09753L356.749 0.0157176C356.552 -0.0243494 356.289 0.0157225 356.157 0.0958564C356.025 0.17599 355.894 0.25612 355.828 0.336254V0.376324C355.302 2.98068 354.38 5.62509 353.262 8.14931C353.196 8.26951 353.262 8.38971 353.393 8.50992C353.525 8.63012 353.722 8.67018 353.92 8.71025C357.736 9.23112 362.276 9.87219 366.092 10.4331Z" fill="#55FFFF"/>
<path d="M390 91.9694C390.855 90.9677 399.409 83.1546 400.264 83.3149C400.791 83.4351 407.831 91.8091 407.831 92.1697C407.765 92.2899 394.474 92.2098 390 91.9694ZM669.833 223.549C669.767 223.509 665.424 220.264 663.451 218.541C663.319 218.421 663.122 218.14 662.99 217.94C662.858 217.78 662.727 217.659 662.529 217.619C662.332 217.579 662.135 217.619 662.003 217.739L655.094 223.629C654.963 223.709 654.963 223.83 654.963 223.99C654.963 224.11 655.094 224.27 655.226 224.351C655.292 224.391 656.41 225.232 657.068 225.593C659.108 226.835 662.858 229.8 662.924 229.84C663.056 229.96 663.253 230 663.451 230C663.648 230 663.78 229.92 663.845 229.8C663.845 229.8 664.635 228.678 665.161 228.157C665.885 227.396 666.675 226.674 667.464 225.953C668.056 225.392 668.32 225.272 668.583 225.152C668.912 224.992 669.241 224.871 669.964 224.19C670.162 224.07 670.096 223.75 669.833 223.549ZM756.092 10.4331C756.487 10.5133 756.948 10.353 757.013 10.1126C757.013 10.0725 757.013 10.0325 757.013 9.95232C757.145 9.39138 758.856 4.90389 759.974 2.13927C760.04 2.01907 759.974 1.89886 759.843 1.81873C759.711 1.69853 759.514 1.65846 759.316 1.6184C759.185 1.6184 756.224 1.17766 755.566 1.09753L746.749 0.0157176C746.552 -0.0243494 746.289 0.0157225 746.157 0.0958564C746.025 0.17599 745.894 0.25612 745.828 0.336254V0.376324C745.302 2.98068 744.38 5.62509 743.262 8.14931C743.196 8.26951 743.262 8.38971 743.393 8.50992C743.525 8.63012 743.722 8.67018 743.92 8.71025C747.736 9.23112 752.276 9.87219 756.092 10.4331Z" fill="#55FFFF"/>
</svg>
