<svg width="1440" height="808" viewBox="0 0 1440 808" fill="none" xmlns="http://www.w3.org/2000/svg">
<path d="M32.67 145.75C32.67 70.2535 12.83 60.7139 3.24249e-05 -25.9462C-3.50997 -49.6611 -12.73 -70.5377 3.24249e-05 -75C57.27 -95.0725 70 -75 140 -75C210 -75 210 -75 280 -75C350 -75 350 -75 420 -75C490 -75 490 -75 560 -75C630 -75 630 -75 700 -75C770 -75 770 -75 840 -75C910 -75 910 -75 980 -75C1050 -75 1050 -75 1120 -75C1190 -75 1190 -75 1260 -75C1330 -75 1330 -75 1400 -75C1451.2 -75 1469.55 -115.523 1502.39 -75C1539.55 -29.1471 1525.11 10.3514 1540 97.7684C1543.91 120.726 1540 121.751 1540 145.75C1540 256.125 1540 256.125 1540 366.5C1540 476.875 1540 476.875 1540 587.25C1540 697.625 1575 752.813 1540 808C1505 863.188 1470 808 1400 808C1351.82 808 1339.62 840.419 1303.64 808C1269.62 777.347 1280.56 681.857 1260 681.857C1240.08 681.857 1255.03 778.845 1222.67 808C1185.03 841.917 1171.34 808 1120 808C1050 808 1050 808 980 808C910 808 910 808 840 808C770 808 770 808 700 808C630 808 630 808 560 808C490 808 490 808 420 808C350 808 350 808 280 808C210 808 210 808 140 808C70 808 43.01 850.557 3.24249e-05 808C-26.99 781.305 -26.31 707.685 3.24249e-05 669.495C43.69 606.061 72.06 595.26 140 604.768C212.06 614.844 215.33 713.692 280 708.662C328.11 704.925 365.56 631.668 365.56 587.25C365.56 553.097 323.18 566.626 280 551.536C210.4 527.206 210.58 515.68 140 508.411C70.58 501.268 41.03 564.308 3.24249e-05 522.728C-28.97 493.352 3.24249e-05 444.614 3.24249e-05 366.5C3.24249e-05 270.71 -12.48 259.231 3.24249e-05 174.905C3.86003 148.856 32.67 170.679 32.67 145.75Z" stroke="#19528E" stroke-opacity="0.37" stroke-width="2"/>
<path d="M560 61.3447C529.73 62.7795 513.33 108.238 513.33 145.75C513.33 175.614 539.92 165.081 560 196.097C611.38 275.456 606.41 284.003 656.25 366.5C676.41 399.865 679.72 427.821 700 427.821C717.33 427.821 730.88 403.129 731.46 366.5C733.1 262.085 719.42 255.069 704.44 145.75C703.69 140.279 703.33 138.859 700 136.92C631.11 96.6646 623.07 58.3645 560 61.3447Z" stroke="#19528E" stroke-opacity="0.37" stroke-width="2"/>
<path d="M1120 99.7552C1110.29 99.7552 1095 120.884 1095 145.75C1095 178.374 1110.74 214.734 1120 214.734C1128.24 214.734 1130 179.824 1130 145.75C1130 122.335 1127.79 99.7552 1120 99.7552Z" stroke="#19528E" stroke-opacity="0.37" stroke-width="2"/>
<path d="M1400 266.153C1376.43 266.153 1352.05 320.631 1352.05 366.5C1352.05 402.53 1376.29 429.934 1400 429.934C1422.99 429.934 1445.45 402.277 1445.45 366.5C1445.45 320.395 1423.13 266.153 1400 266.153Z" stroke="#19528E" stroke-opacity="0.37" stroke-width="2"/>
<path d="M840 550.022C822.33 550.022 810.3 565.459 810.3 587.25C810.3 616.263 818.82 651.63 840 651.63C891.31 651.63 955.29 613.141 955.29 587.25C955.29 562.337 894.82 550.022 840 550.022Z" stroke="#19528E" stroke-opacity="0.37" stroke-width="2"/>
<path d="M140 108.964C97.1403 66.6111 97.5803 -6.4414 97.5803 -75C97.5803 -98.4311 118.79 -75 140 -75C210 -75 210 -75 280 -75C350 -75 350 -75 420 -75C475.26 -75 529.84 -117.557 530.53 -75C531.63 -7.18249 472.33 32.1899 423.59 145.75C417.06 160.966 421.87 164.167 420 182.536C410.62 274.542 433.39 300.054 401.08 366.5C363.39 443.983 338.62 470.379 280 470.379C231.42 470.379 186.67 427.663 186.67 366.5C186.67 289.569 222.36 252.215 280 194.205C332.02 141.84 406 168.093 406 145.75C406 123.596 343.67 114.009 280 105.211C210.67 95.6239 188.35 156.724 140 108.964Z" stroke="#19528E" stroke-opacity="0.37" stroke-width="2"/>
<path d="M700 26.545C647.65 -37.9297 580.74 -47.9896 580.74 -75C580.74 -98.7621 640.37 -75 700 -75C770 -75 770 -75 840 -75C910 -75 910 -75 980 -75C1038.65 -75 1097.3 -116.438 1097.3 -75C1097.3 -12.7485 1038.6 28.6264 980 132.379C976.26 139.001 972.63 137.062 972.63 145.75C972.63 254.123 1011.13 287.219 980 366.5C944.81 456.109 903.77 483.529 840 483.529C799.16 483.529 787.57 437.361 770.79 366.5C747.57 268.471 780.98 246.491 760 145.75C745.58 76.5134 737.28 72.4453 700 26.545Z" stroke="#19528E" stroke-opacity="0.37" stroke-width="2"/>
<path d="M1180 145.75C1202.34 38.7019 1216.4 41.9659 1260 -50.4653C1268.47 -68.4091 1270.23 -72.5561 1284.14 -75.0001C1340.23 -84.8235 1342.07 -75.0001 1400 -75.0001C1425.07 -75.0001 1446.49 -103.839 1450.15 -75.0001C1460.49 6.53551 1448.6 46.8066 1428 145.75C1423.53 167.226 1410.02 147.957 1400 165.822C1348.08 258.332 1304.11 274.778 1304.11 366.5C1304.11 438.543 1352.59 493.368 1400 493.368C1445.99 493.368 1451.5 437.913 1490.91 366.5C1521.5 311.076 1526.76 239.679 1540 239.679C1551.3 239.679 1540 303.082 1540 366.5C1540 476.875 1540 476.875 1540 587.25C1540 697.625 1575 752.812 1540 808C1505 863.188 1470 808 1400 808C1374.55 808 1363.63 835.278 1349.09 808C1304.77 724.903 1317.77 695.733 1282.27 587.25C1273.22 559.593 1272.16 560.287 1260 535.736C1217.51 449.912 1192.83 463.299 1172.97 366.5C1152.83 268.298 1158.83 247.185 1180 145.75Z" stroke="#19528E" stroke-opacity="0.37" stroke-width="2"/>
<path d="M-9.10759e-05 279.036C25.2699 279.036 79.4599 325.645 79.4599 366.5C79.4599 405.037 26.5799 437.818 -9.10759e-05 437.818C-13.1501 437.818 -9.10759e-05 402.167 -9.10759e-05 366.5C-9.10759e-05 322.76 -14.4601 279.036 -9.10759e-05 279.036Z" stroke="#19528E" stroke-opacity="0.37" stroke-width="2"/>
<path d="M449.17 366.5C459.4 301.962 509.86 292.911 560 292.911C586.06 292.911 579.03 332.457 601.56 366.5C649.03 438.244 651.03 435.043 700 504.469C728.89 545.418 732.36 540.609 757.27 587.25C802.36 671.687 785.57 740.246 840 766.609C896.94 794.203 910.2 731.841 980 695.165C1050.2 658.268 1066.81 589.994 1120 619.448C1168.7 646.411 1183.78 743.888 1183.78 808C1183.78 838.164 1151.89 808 1120 808C1050 808 1050 808 980 808C910 808 910 808 840 808C770 808 770 808 700 808C630 808 630 808 560 808C490 808 490 808 420 808C368.66 808 317.33 840.75 317.33 808C317.33 762.431 362.77 715.805 420 651.346C460.77 605.43 507.53 643.935 513.33 587.25C522.11 501.504 436.07 449.139 449.17 366.5Z" stroke="#19528E" stroke-opacity="0.37" stroke-width="2"/>
<path d="M6.10352e-05 777.694C62.0501 726.449 74.7701 683.938 140 692.374C191.91 699.091 234.29 775.692 234.29 808C234.29 833.497 187.14 808 140 808C70.0001 808 61.5501 821.324 6.10352e-05 808C-8.44994 806.171 -7.94994 784.254 6.10352e-05 777.694Z" stroke="#19528E" stroke-opacity="0.37" stroke-width="2"/>
<path d="M815.56 145.75C819.87 102.215 824.89 64.8136 840 64.8136C857.38 64.8136 870.97 98.0522 880.53 145.75C901.2 248.888 914.11 275.094 900.45 366.5C893.84 410.729 867.53 417.036 840 417.036C822.36 417.036 813.02 398.824 810.11 366.5C800.8 263.173 804.93 253.05 815.56 145.75Z" stroke="#19528E" stroke-opacity="0.37" stroke-width="2"/>
<path d="M1230 145.75C1230 104.974 1241.01 72.1614 1260 72.1614C1286.01 72.1614 1320 97.9419 1320 145.75C1320 232.126 1283.37 340.53 1260 340.53C1238.37 340.53 1230 239.159 1230 145.75Z" stroke="#19528E" stroke-opacity="0.37" stroke-width="2"/>
<path d="M259.58 366.5C259.58 349.676 269.01 328.815 280 328.815C292.47 328.815 306.49 350.133 306.49 366.5C306.49 380.328 292.83 389.221 280 389.221C269.37 389.221 259.58 379.871 259.58 366.5Z" stroke="#19528E" stroke-opacity="0.37" stroke-width="2"/>
<path d="M684.44 587.25C688.02 576.433 692.71 581.116 700 581.116C702.61 581.116 703.02 583.15 704.24 587.25C736.89 696.6 769.21 731.384 767.74 808C767.09 841.759 733.87 808 700 808C662.5 808 627.57 844.455 625 808C619.79 734.08 650.52 689.867 684.44 587.25Z" stroke="#19528E" stroke-opacity="0.37" stroke-width="2"/>
<path d="M1361.82 587.25C1362.44 558.442 1379.52 556.802 1400 556.802C1451.11 556.802 1454.98 562.652 1505 587.25C1524.98 597.073 1535.29 595.907 1540 625.645C1552.79 706.281 1571.67 766.751 1540 808C1501.67 857.937 1470 808 1400 808C1397.28 808 1395.25 812.036 1394.55 808C1376.16 701.661 1359.72 684.049 1361.82 587.25Z" stroke="#19528E" stroke-opacity="0.37" stroke-width="2"/>
<path d="M96.9199 808C96.9199 800.715 119.67 779.965 140 779.965C152.64 779.965 162.86 800.163 162.86 808C162.86 814.181 151.43 808 140 808C118.46 808 96.9199 814.733 96.9199 808Z" stroke="#19528E" stroke-opacity="0.37" stroke-width="2"/>
<path d="M375.67 808C375.67 788.322 394.67 740.356 420 740.356C458.4 740.356 503.13 790.088 503.13 808C503.13 823.91 461.57 808 420 808C397.84 808 375.67 822.144 375.67 808Z" stroke="#19528E" stroke-opacity="0.37" stroke-width="2"/>
<path d="M995.56 808C995.56 789 1066.59 734.411 1120 734.411C1141.26 734.411 1144.89 782.976 1144.89 808C1144.89 819.779 1132.45 808 1120 808C1057.78 808 995.56 825.786 995.56 808Z" stroke="#19528E" stroke-opacity="0.37" stroke-width="2"/>
</svg>
