<svg width="1440" height="530" viewBox="0 0 1440 530" fill="none" xmlns="http://www.w3.org/2000/svg">
<path d="M1181.73 221.495C1177.5 217.279 1173.17 213.062 1168.67 208.845C1173.61 204.472 1178.47 199.864 1182.44 194.632C1183.5 193.305 1183.06 191.43 1181.56 190.571C1180.06 189.634 1177.94 190.025 1176.97 191.352C1173.26 196.194 1168.93 200.411 1164.16 204.55C1159.93 200.645 1155.6 196.741 1151.18 192.914C1149.86 191.743 1147.74 191.743 1146.51 192.914C1145.18 194.085 1145.18 195.96 1146.51 197.053C1150.83 200.801 1155.07 204.706 1159.31 208.61C1158.34 209.469 1157.28 210.328 1156.22 211.109C1152.6 214.077 1148.8 217.2 1145.27 220.48C1144.03 221.652 1144.03 223.448 1145.27 224.619C1146.59 225.712 1148.71 225.712 1149.95 224.541C1153.39 221.417 1157.1 218.372 1160.63 215.404C1161.69 214.545 1162.66 213.686 1163.72 212.827C1168.05 216.966 1172.37 221.105 1176.61 225.244C1176.7 225.322 1176.7 225.322 1176.79 225.4C1178.03 226.493 1180.06 226.571 1181.38 225.556C1182.88 224.619 1182.97 222.745 1181.73 221.495ZM138.937 183.543L138.584 181.513C137.259 172.845 136.641 163.396 136.553 152.619C136.553 148.324 136.553 143.639 136.73 138.172C136.73 137.626 136.73 137.001 136.73 136.376C136.73 132.471 136.73 127.63 140.173 125.834C142.115 124.819 144.676 125.053 147.678 126.537C152.71 128.957 159.332 133.331 163.128 138.172C167.984 144.263 169.574 151.37 167.543 158.242C164.718 167.847 154.299 182.45 141.056 183.309L138.937 183.543ZM142.91 129.348C142.733 129.348 142.645 129.348 142.557 129.426C142.468 129.504 141.939 129.816 141.586 131.534C141.321 133.018 141.321 134.814 141.321 136.454C141.321 137.079 141.321 137.782 141.321 138.328C141.144 143.717 141.144 148.324 141.144 152.619C141.232 162.38 141.762 170.97 142.91 178.936C152.622 176.827 160.921 164.801 163.217 157.226C164.894 151.604 163.57 145.669 159.508 140.593C156.065 136.298 149.885 132.315 145.47 130.207C144.234 129.582 143.351 129.348 142.91 129.348ZM305.541 36.8879C305.452 36.8879 305.364 36.8879 305.187 36.8098C303.068 36.2632 301.656 36.107 299.272 36.2632C298.654 36.2632 298.124 35.8727 298.036 35.3261C298.036 34.7794 298.477 34.3109 299.095 34.2328C301.832 34.0766 303.422 34.2328 305.805 34.8575C306.423 35.0137 306.777 35.5604 306.6 36.107C306.424 36.5755 305.982 36.8879 305.541 36.8879ZM296.535 44.4628C296.094 44.4628 295.652 44.2285 295.476 43.838C294.769 42.1981 294.416 40.4801 294.328 38.684C294.328 38.1374 294.769 37.6688 295.387 37.6688C296.005 37.6688 296.535 38.0593 296.535 38.6059C296.623 40.1677 296.976 41.6515 297.506 43.1352C297.683 43.6818 297.418 44.2285 296.8 44.3847C296.8 44.4628 296.623 44.4628 296.535 44.4628ZM285.94 39.6992C285.587 39.6992 285.234 39.543 285.057 39.3087C284.704 38.8402 284.792 38.2155 285.234 37.9031C286.823 36.8098 288.501 35.8727 290.355 35.0918C290.884 34.8575 291.591 35.0918 291.856 35.5604C292.12 36.0289 291.856 36.6536 291.326 36.8879C289.648 37.5907 288.059 38.4497 286.646 39.4649C286.47 39.6211 286.205 39.6992 285.94 39.6992ZM291.591 32.5929C291.149 32.5929 290.796 32.3586 290.531 32.0463C290.09 31.2653 289.472 30.5625 288.412 29.3912C288.147 29.0788 287.794 28.6883 287.441 28.2979C287.088 27.8293 287.176 27.2046 287.618 26.8922C288.147 26.5799 288.854 26.658 289.207 27.0484C289.56 27.4389 289.913 27.8293 290.178 28.1417C291.326 29.3912 292.032 30.1721 292.562 31.1873C292.827 31.6558 292.562 32.2805 292.032 32.5148C291.944 32.5929 291.767 32.5929 291.591 32.5929ZM297.065 32.3586C296.8 32.3586 296.623 32.2805 296.358 32.2024C295.829 31.8901 295.74 31.2653 296.094 30.7968C297.153 29.4692 298.124 28.1417 299.007 26.7361C299.272 26.2675 299.978 26.0332 300.508 26.3456C301.038 26.5799 301.303 27.2046 300.95 27.6731C300.067 29.1569 299.007 30.6406 297.859 32.0463C297.683 32.2024 297.418 32.3586 297.065 32.3586ZM758.47 288.341C758.382 288.341 758.293 288.342 758.117 288.263C755.998 287.717 754.585 287.561 752.201 287.717C751.583 287.717 751.053 287.326 750.965 286.78C750.965 286.233 751.407 285.764 752.025 285.686C754.762 285.53 756.351 285.686 758.735 286.311C759.353 286.467 759.706 287.014 759.529 287.561C759.353 288.029 758.911 288.341 758.47 288.341ZM749.464 295.916C749.023 295.916 748.581 295.682 748.405 295.292C747.698 293.652 747.345 291.934 747.257 290.138C747.257 289.591 747.698 289.122 748.316 289.122C748.934 289.122 749.464 289.513 749.464 290.06C749.552 291.621 749.906 293.105 750.435 294.589C750.612 295.135 750.347 295.682 749.729 295.838C749.729 295.916 749.552 295.916 749.464 295.916ZM738.869 291.153C738.516 291.153 738.163 290.997 737.986 290.762C737.633 290.294 737.722 289.669 738.163 289.357C739.752 288.263 741.43 287.326 743.284 286.545C743.814 286.311 744.52 286.545 744.785 287.014C745.05 287.482 744.785 288.107 744.255 288.341C742.578 289.044 740.988 289.903 739.576 290.919C739.399 291.075 739.134 291.153 738.869 291.153ZM744.52 284.046C744.078 284.046 743.725 283.812 743.46 283.5C743.019 282.719 742.401 282.016 741.341 280.845C741.077 280.532 740.723 280.142 740.37 279.751C740.017 279.283 740.105 278.658 740.547 278.346C741.077 278.033 741.783 278.112 742.136 278.502C742.489 278.892 742.842 279.283 743.107 279.595C744.255 280.845 744.961 281.626 745.491 282.641C745.756 283.109 745.491 283.734 744.961 283.968C744.873 284.046 744.696 284.046 744.52 284.046ZM749.994 283.812C749.729 283.812 749.552 283.734 749.288 283.656C748.758 283.344 748.67 282.719 749.023 282.25C750.082 280.923 751.053 279.595 751.936 278.19C752.201 277.721 752.907 277.487 753.437 277.799C753.967 278.033 754.232 278.658 753.879 279.127C752.996 280.61 751.936 282.094 750.788 283.5C750.612 283.656 750.347 283.812 749.994 283.812ZM1023.69 437.183C1022.46 437.183 1021.13 437.027 1019.72 436.637C1012.3 434.528 1005.06 426.719 1003.21 421.018C1002.86 419.925 1002.59 418.754 1002.42 417.582C995.264 420.159 988.731 425.86 988.819 433.982C988.819 435.153 987.76 436.09 986.435 436.168C985.111 436.168 984.052 435.231 984.052 434.06C983.963 428.828 986.17 423.986 990.232 420.003C993.41 416.88 997.648 414.459 1002.33 413.131C1002.77 408.055 1005.06 403.057 1008.86 399.543C1015.04 393.765 1024.93 392.593 1032.96 391.656L1033.58 391.578C1034.91 391.422 1036.14 392.281 1036.32 393.374C1036.5 394.545 1035.52 395.639 1034.29 395.795L1033.67 395.873C1026.08 396.81 1017.43 397.825 1012.48 402.433C1009.83 404.932 1008.07 408.446 1007.45 412.116C1014.42 411.335 1023.08 413.131 1028.9 416.567C1032.7 418.832 1035.17 422.658 1035.26 426.485C1035.44 429.843 1033.76 432.966 1030.67 435.153C1028.55 436.402 1026.25 437.183 1023.69 437.183ZM1007.18 416.333C1007.27 417.504 1007.54 418.676 1007.89 419.769C1009.39 424.298 1015.57 430.858 1021.22 432.498C1023.69 433.201 1025.72 432.888 1027.58 431.639C1029.96 429.999 1030.4 427.89 1030.32 426.485C1030.23 423.986 1028.55 421.487 1026.08 420.003C1021.05 416.958 1013.1 415.474 1007.18 416.333Z" fill="#D8D2D2" fill-opacity="0.4"/>
<path d="M900.843 188.302C905.477 188.302 909.233 185.398 909.233 181.815C909.233 178.233 905.477 175.328 900.843 175.328C896.21 175.328 892.453 178.233 892.453 181.815C892.453 185.398 896.21 188.302 900.843 188.302Z" fill="white" fill-opacity="0.4"/>
<path d="M1293.5 477.402C1296.45 476.305 1322.8 469.544 1323.75 470.549C1324.34 471.189 1319.14 492.295 1318.31 492.934C1318.08 493.208 1299.41 481.696 1293.5 477.402ZM1439.79 15.3579C1439.79 15.2666 1434 6.76941 1431.52 2.38378C1431.4 2.10968 1431.17 1.37875 1431.05 0.921917C1430.93 0.556448 1430.69 0.282338 1430.34 0.0996039C1429.99 -0.0831304 1429.63 0.00824233 1429.39 0.190977L1413.91 11.4291C1413.68 11.6119 1413.56 11.886 1413.44 12.1601C1413.44 12.4342 1413.44 12.7997 1413.68 13.0738C1413.8 13.1651 1415.33 15.3579 1416.16 16.363C1419 19.7435 1423.84 27.4184 1423.84 27.5098C1424.08 27.7839 1424.31 27.9666 1424.67 28.058C1425.02 28.058 1425.26 27.9666 1425.5 27.7839C1425.5 27.7839 1427.62 25.4997 1428.69 24.4947C1430.46 23.0328 1432.23 21.5709 1434.12 20.2004C1435.54 19.104 1436.01 18.9213 1436.6 18.7385C1437.19 18.4644 1437.9 18.2817 1439.56 17.0025C1440.03 16.5457 1440.15 15.8148 1439.79 15.3579ZM29.6609 509.837C29.6609 509.198 29.07 508.741 28.2428 508.741C28.1247 508.741 27.8883 508.741 27.7702 508.832C25.8794 509.015 10.8717 508.923 1.53622 508.832C1.18171 508.832 0.827196 508.923 0.472684 509.198C0.236342 509.38 0 509.654 0 510.02C0 510.203 -1.14457e-07 514.497 0.118171 515.411L0.590854 527.836C0.590854 528.111 0.827196 528.385 1.06354 528.659C1.29988 528.842 1.65439 528.933 2.00891 528.933H2.12708C10.7535 528.293 19.4982 528.111 28.1247 528.385C28.4792 528.385 28.9519 528.293 29.1882 528.111C29.4245 527.928 29.6609 527.562 29.6609 527.288C29.5427 521.715 29.5427 515.228 29.6609 509.837Z" fill="#FFFF77"/>
<path d="M885.481 172.953C890.114 172.953 893.871 170.048 893.871 166.466C893.871 162.883 890.114 159.979 885.481 159.979C880.847 159.979 877.091 162.883 877.091 166.466C877.091 170.048 880.847 172.953 885.481 172.953Z" fill="white" fill-opacity="0.4"/>
<path d="M166.752 215.24C168.288 212.956 183.651 195.139 185.187 195.505C186.132 195.779 198.777 214.875 198.777 215.697C198.658 215.971 174.788 215.788 166.752 215.24ZM669.333 515.29C669.215 515.199 661.416 507.798 657.87 503.869C657.634 503.595 657.28 502.955 657.043 502.499C656.807 502.133 656.571 501.859 656.216 501.768C655.862 501.676 655.507 501.768 655.271 502.042L642.863 515.473C642.626 515.655 642.626 515.93 642.626 516.295C642.626 516.569 642.863 516.935 643.099 517.117C643.217 517.209 645.226 519.127 646.408 519.95C650.071 522.782 656.807 529.543 656.925 529.635C657.161 529.909 657.516 530 657.87 530C658.225 530 658.461 529.817 658.579 529.543C658.579 529.543 659.998 526.985 660.943 525.797C662.243 524.061 663.661 522.417 665.079 520.772C666.142 519.493 666.615 519.219 667.088 518.945C667.679 518.579 668.269 518.305 669.569 516.752C669.924 516.478 669.806 515.747 669.333 515.29ZM824.255 29.3079C824.964 29.4906 825.791 29.1252 825.909 28.577C825.909 28.4856 825.909 28.3942 825.909 28.2115C826.146 26.9324 829.218 16.6992 831.227 10.3949C831.345 10.1208 831.227 9.8467 830.991 9.66397C830.754 9.38986 830.4 9.2985 830.045 9.20713C829.809 9.20713 824.491 8.2021 823.31 8.01937L807.475 5.55244C807.12 5.46108 806.648 5.55245 806.411 5.73519C806.175 5.91792 805.939 6.10065 805.82 6.28338V6.37476C804.875 12.3136 803.221 18.3439 801.212 24.1C801.094 24.3741 801.212 24.6482 801.448 24.9223C801.684 25.1964 802.039 25.2878 802.393 25.3791C809.247 26.5669 817.401 28.0288 824.255 29.3079Z" fill="#55FFFF" fill-opacity="0.56"/>
</svg>
